<?xml version="1.0" encoding="UTF-8" standalone="no"?>
<!DOCTYPE svg PUBLIC "-//W3C//DTD SVG 1.1//EN"
 "http://www.w3.org/Graphics/SVG/1.1/DTD/svg11.dtd">
<!-- Generated by graphviz version 2.38.0 (20140413.2041)
 -->
<!-- Title: G Pages: 1 -->
<svg width="459pt" height="390pt"
 viewBox="0.00 0.00 459.00 390.00" xmlns="http://www.w3.org/2000/svg" xmlns:xlink="http://www.w3.org/1999/xlink">
<g id="graph0" class="graph" transform="scale(1 1) rotate(0) translate(4 386)">
<title>G</title>
<polygon fill="white" stroke="none" points="-4,4 -4,-386 455,-386 455,4 -4,4"/>
<g id="clust1" class="cluster"><title>cluster1</title>
<polygon fill="none" stroke="black" points="8,-8 8,-227 174,-227 174,-8 8,-8"/>
<text text-anchor="middle" x="91" y="-211.8" font-family="Consolas" font-size="14.00">DHTServer</text>
</g>
<g id="clust2" class="cluster"><title>cluster2</title>
<polygon fill="none" stroke="black" points="197,-80 197,-374 443,-374 443,-80 197,-80"/>
<text text-anchor="middle" x="320" y="-358.8" font-family="Consolas" font-size="14.00">RoutingTable</text>
</g>
<g id="clust3" class="cluster"><title>cluster3</title>
<polygon fill="none" stroke="black" points="16,-299 16,-374 189,-374 189,-299 16,-299"/>
<text text-anchor="middle" x="102.5" y="-358.8" font-family="Consolas" font-size="14.00">KRPCProtocol</text>
</g>
<!-- ds_sv -->
<g id="node1" class="node"><title>ds_sv</title>
<path fill="#8ae234" stroke="black" d="M125,-52C125,-52 57,-52 57,-52 51,-52 45,-46 45,-40 45,-40 45,-28 45,-28 45,-22 51,-16 57,-16 57,-16 125,-16 125,-16 131,-16 137,-22 137,-28 137,-28 137,-40 137,-40 137,-46 131,-52 125,-52"/>
<text text-anchor="middle" x="91" y="-30.3" font-family="Consolas" font-size="14.00">SuperVisor</text>
</g>
<!-- ds_worker -->
<g id="node2" class="node"><title>ds_worker</title>
<path fill="#729fcf" stroke="black" d="M66,-124C66,-124 28,-124 28,-124 22,-124 16,-118 16,-112 16,-112 16,-100 16,-100 16,-94 22,-88 28,-88 28,-88 66,-88 66,-88 72,-88 78,-94 78,-100 78,-100 78,-112 78,-112 78,-118 72,-124 66,-124"/>
<text text-anchor="middle" x="47" y="-102.3" font-family="Consolas" font-size="14.00">Worker</text>
</g>
<!-- ds_sv&#45;&gt;ds_worker -->
<g id="edge2" class="edge"><title>ds_sv&#45;&gt;ds_worker</title>
<path fill="none" stroke="black" d="M61.5,-52.1686C61.5,-52.1686 61.5,-77.5867 61.5,-77.5867"/>
<polygon fill="black" stroke="black" points="58.0001,-77.5867 61.5,-87.5867 65.0001,-77.5868 58.0001,-77.5867"/>
</g>
<!-- ds_storage -->
<g id="node3" class="node"><title>ds_storage</title>
<path fill="#729fcf" stroke="black" d="M153.5,-124C153.5,-124 108.5,-124 108.5,-124 102.5,-124 96.5,-118 96.5,-112 96.5,-112 96.5,-100 96.5,-100 96.5,-94 102.5,-88 108.5,-88 108.5,-88 153.5,-88 153.5,-88 159.5,-88 165.5,-94 165.5,-100 165.5,-100 165.5,-112 165.5,-112 165.5,-118 159.5,-124 153.5,-124"/>
<text text-anchor="middle" x="131" y="-102.3" font-family="Consolas" font-size="14.00">Storage</text>
</g>
<!-- ds_sv&#45;&gt;ds_storage -->
<g id="edge1" class="edge"><title>ds_sv&#45;&gt;ds_storage</title>
<path fill="none" stroke="black" d="M116.75,-52.1686C116.75,-52.1686 116.75,-77.5867 116.75,-77.5867"/>
<polygon fill="black" stroke="black" points="113.25,-77.5867 116.75,-87.5867 120.25,-77.5868 113.25,-77.5867"/>
</g>
<!-- ds_utils -->
<g id="node4" class="node"><title>ds_utils</title>
<path fill="#fcaf3e" stroke="black" d="M58,-196C58,-196 28,-196 28,-196 22,-196 16,-190 16,-184 16,-184 16,-172 16,-172 16,-166 22,-160 28,-160 28,-160 58,-160 58,-160 64,-160 70,-166 70,-172 70,-172 70,-184 70,-184 70,-190 64,-196 58,-196"/>
<text text-anchor="middle" x="43" y="-174.3" font-family="Consolas" font-size="14.00">Utils</text>
</g>
<!-- ds_worker&#45;&gt;ds_utils -->
<g id="edge3" class="edge"><title>ds_worker&#45;&gt;ds_utils</title>
<path fill="none" stroke="black" d="M43,-124.169C43,-124.169 43,-149.587 43,-149.587"/>
<polygon fill="black" stroke="black" points="39.5001,-149.587 43,-159.587 46.5001,-149.587 39.5001,-149.587"/>
</g>
<!-- rt_search -->
<g id="node10" class="node"><title>rt_search</title>
<path fill="#729fcf" stroke="black" d="M255,-196C255,-196 217,-196 217,-196 211,-196 205,-190 205,-184 205,-184 205,-172 205,-172 205,-166 211,-160 217,-160 217,-160 255,-160 255,-160 261,-160 267,-166 267,-172 267,-172 267,-184 267,-184 267,-190 261,-196 255,-196"/>
<text text-anchor="middle" x="236" y="-174.3" font-family="Consolas" font-size="14.00">Search</text>
</g>
<!-- ds_worker&#45;&gt;rt_search -->
<g id="edge10" class="edge"><title>ds_worker&#45;&gt;rt_search</title>
<path fill="none" stroke="black" d="M173.859,-178C186.223,-178 194.64,-178 194.64,-178"/>
<polygon fill="black" stroke="black" points="187,-181.5 197,-178 187,-174.5 187,-181.5"/>
</g>
<!-- kp_decoder -->
<g id="node12" class="node"><title>kp_decoder</title>
<path fill="#fcaf3e" stroke="black" d="M81.5,-343C81.5,-343 36.5,-343 36.5,-343 30.5,-343 24.5,-337 24.5,-331 24.5,-331 24.5,-319 24.5,-319 24.5,-313 30.5,-307 36.5,-307 36.5,-307 81.5,-307 81.5,-307 87.5,-307 93.5,-313 93.5,-319 93.5,-319 93.5,-331 93.5,-331 93.5,-337 87.5,-343 81.5,-343"/>
<text text-anchor="middle" x="59" y="-321.3" font-family="Consolas" font-size="14.00">Decoder</text>
</g>
<!-- ds_worker&#45;&gt;kp_decoder -->
<g id="edge11" class="edge"><title>ds_worker&#45;&gt;kp_decoder</title>
<path fill="none" stroke="black" d="M72.6667,-226.701C72.6667,-263.871 72.6667,-296.911 72.6667,-296.911"/>
<polygon fill="black" stroke="black" points="69.1671,-289 72.6667,-299 76.1671,-289 69.1671,-289"/>
</g>
<!-- rt_sv -->
<g id="node5" class="node"><title>rt_sv</title>
<path fill="#8ae234" stroke="black" d="M386,-124C386,-124 318,-124 318,-124 312,-124 306,-118 306,-112 306,-112 306,-100 306,-100 306,-94 312,-88 318,-88 318,-88 386,-88 386,-88 392,-88 398,-94 398,-100 398,-100 398,-112 398,-112 398,-118 392,-124 386,-124"/>
<text text-anchor="middle" x="352" y="-102.3" font-family="Consolas" font-size="14.00">SuperVisor</text>
</g>
<!-- rt_worker -->
<g id="node6" class="node"><title>rt_worker</title>
<path fill="#729fcf" stroke="black" d="M371,-196C371,-196 333,-196 333,-196 327,-196 321,-190 321,-184 321,-184 321,-172 321,-172 321,-166 327,-160 333,-160 333,-160 371,-160 371,-160 377,-160 383,-166 383,-172 383,-172 383,-184 383,-184 383,-190 377,-196 371,-196"/>
<text text-anchor="middle" x="352" y="-174.3" font-family="Consolas" font-size="14.00">Worker</text>
</g>
<!-- rt_sv&#45;&gt;rt_worker -->
<g id="edge4" class="edge"><title>rt_sv&#45;&gt;rt_worker</title>
<path fill="none" stroke="black" d="M352,-124.169C352,-124.169 352,-149.587 352,-149.587"/>
<polygon fill="black" stroke="black" points="348.5,-149.587 352,-159.587 355.5,-149.587 348.5,-149.587"/>
</g>
<!-- rt_bucket -->
<g id="node7" class="node"><title>rt_bucket</title>
<path fill="#fcaf3e" stroke="black" d="M423,-271C423,-271 385,-271 385,-271 379,-271 373,-265 373,-259 373,-259 373,-247 373,-247 373,-241 379,-235 385,-235 385,-235 423,-235 423,-235 429,-235 435,-241 435,-247 435,-247 435,-259 435,-259 435,-265 429,-271 423,-271"/>
<text text-anchor="middle" x="404" y="-249.3" font-family="Consolas" font-size="14.00">Bucket</text>
</g>
<!-- rt_worker&#45;&gt;rt_bucket -->
<g id="edge5" class="edge"><title>rt_worker&#45;&gt;rt_bucket</title>
<path fill="none" stroke="black" d="M378,-196.155C378,-196.155 378,-224.752 378,-224.752"/>
<polygon fill="black" stroke="black" points="374.5,-224.752 378,-234.752 381.5,-224.752 374.5,-224.752"/>
</g>
<!-- rt_distance -->
<g id="node9" class="node"><title>rt_distance</title>
<path fill="#fcaf3e" stroke="black" d="M342.5,-271C342.5,-271 289.5,-271 289.5,-271 283.5,-271 277.5,-265 277.5,-259 277.5,-259 277.5,-247 277.5,-247 277.5,-241 283.5,-235 289.5,-235 289.5,-235 342.5,-235 342.5,-235 348.5,-235 354.5,-241 354.5,-247 354.5,-247 354.5,-259 354.5,-259 354.5,-265 348.5,-271 342.5,-271"/>
<text text-anchor="middle" x="316" y="-249.3" font-family="Consolas" font-size="14.00">Distance</text>
</g>
<!-- rt_worker&#45;&gt;rt_distance -->
<g id="edge7" class="edge"><title>rt_worker&#45;&gt;rt_distance</title>
<path fill="none" stroke="black" d="M337.75,-196.155C337.75,-196.155 337.75,-224.752 337.75,-224.752"/>
<polygon fill="black" stroke="black" points="334.25,-224.752 337.75,-234.752 341.25,-224.752 334.25,-224.752"/>
</g>
<!-- rt_node -->
<g id="node8" class="node"><title>rt_node</title>
<path fill="#729fcf" stroke="black" d="M419,-343C419,-343 389,-343 389,-343 383,-343 377,-337 377,-331 377,-331 377,-319 377,-319 377,-313 383,-307 389,-307 389,-307 419,-307 419,-307 425,-307 431,-313 431,-319 431,-319 431,-331 431,-331 431,-337 425,-343 419,-343"/>
<text text-anchor="middle" x="404" y="-321.3" font-family="Consolas" font-size="14.00">Node</text>
</g>
<!-- rt_bucket&#45;&gt;rt_node -->
<g id="edge6" class="edge"><title>rt_bucket&#45;&gt;rt_node</title>
<path fill="none" stroke="black" d="M404,-271.169C404,-271.169 404,-296.587 404,-296.587"/>
<polygon fill="black" stroke="black" points="400.5,-296.587 404,-306.587 407.5,-296.587 400.5,-296.587"/>
</g>
<!-- rt_search&#45;&gt;rt_distance -->
<g id="edge8" class="edge"><title>rt_search&#45;&gt;rt_distance</title>
<path fill="none" stroke="black" d="M263,-196.155C263,-218.352 263,-253 263,-253 263,-253 267.482,-253 267.482,-253"/>
<polygon fill="black" stroke="black" points="267.483,-256.5 277.482,-253 267.482,-249.5 267.483,-256.5"/>
</g>
<!-- rt_snode -->
<g id="node11" class="node"><title>rt_snode</title>
<path fill="#fcaf3e" stroke="black" d="M247,-271C247,-271 217,-271 217,-271 211,-271 205,-265 205,-259 205,-259 205,-247 205,-247 205,-241 211,-235 217,-235 217,-235 247,-235 247,-235 253,-235 259,-241 259,-247 259,-247 259,-259 259,-259 259,-265 253,-271 247,-271"/>
<text text-anchor="middle" x="232" y="-249.3" font-family="Consolas" font-size="14.00">Node</text>
</g>
<!-- rt_search&#45;&gt;rt_snode -->
<g id="edge9" class="edge"><title>rt_search&#45;&gt;rt_snode</title>
<path fill="none" stroke="black" d="M232,-196.155C232,-196.155 232,-224.752 232,-224.752"/>
<polygon fill="black" stroke="black" points="228.5,-224.752 232,-234.752 235.5,-224.752 228.5,-224.752"/>
</g>
<!-- kp_encoder -->
<g id="node13" class="node"><title>kp_encoder</title>
<path fill="#fcaf3e" stroke="black" d="M168.5,-343C168.5,-343 123.5,-343 123.5,-343 117.5,-343 111.5,-337 111.5,-331 111.5,-331 111.5,-319 111.5,-319 111.5,-313 117.5,-307 123.5,-307 123.5,-307 168.5,-307 168.5,-307 174.5,-307 180.5,-313 180.5,-319 180.5,-319 180.5,-331 180.5,-331 180.5,-337 174.5,-343 168.5,-343"/>
<text text-anchor="middle" x="146" y="-321.3" font-family="Consolas" font-size="14.00">Encoder</text>
</g>
<!-- rt_snode&#45;&gt;kp_encoder -->
<g id="edge12" class="edge"><title>rt_snode&#45;&gt;kp_encoder</title>
<path fill="none" stroke="black" d="M197.288,-253C184.465,-253 173,-253 173,-253 173,-253 173,-296.831 173,-296.831"/>
<polygon fill="black" stroke="black" points="169.5,-289 173,-299 176.5,-289 169.5,-289"/>
</g>
</g>
</svg>
